<svg width="100" height="121" viewBox="0 0 100 121" fill="none" xmlns="http://www.w3.org/2000/svg">
<g clip-path="url(#clip0_163_164)">
<path d="M50.855 0C54.4557 3.1118 55.749 7.0702 55.6009 11.7951C55.3445 20.0952 55.2875 28.4067 55.2818 36.7124C55.2761 43.3365 55.4869 49.9605 55.5496 56.5788C55.6009 62.4191 52.9801 66.921 48.4963 70.4618C47.2884 71.4171 46.1262 72.4295 44.6676 73.6422C44.5708 72.8414 44.4511 72.338 44.4511 71.8289C44.4397 50.727 44.3657 29.6251 44.5195 8.52886C44.5423 4.98232 46.2173 1.84763 49.5731 0.00572023C50.0004 0 50.4277 0 50.855 0Z" fill="white"/>
<path d="M50.855 121C49.744 120.714 48.6387 120.422 47.5277 120.142C41.1695 118.511 35.1417 116.549 31.0909 110.629C27.7066 105.692 28.755 98.4335 32.3899 94.824C35.4209 91.8152 38.9646 89.3211 42.3488 86.6841C45.3172 84.3674 48.4963 82.3138 51.3678 79.8827C56.5353 75.5068 60.4209 70.1469 62.8195 63.746C64.0216 60.5312 64.5571 57.2478 64.1754 53.8271C64.1412 53.5068 64.1982 53.175 64.2438 52.2197C64.9332 53.1521 65.4061 53.564 65.5884 54.0788C67.3716 59.1412 67.1551 64.032 65.3605 69.1974C62.9106 76.2332 58.2844 81.3929 52.9117 86.1235C52.644 86.358 52.3306 86.5411 51.7894 86.9244C55.3787 91.3861 58.8028 95.642 62.2269 99.8978C62.0902 100.087 61.9535 100.275 61.8167 100.464C60.455 99.955 59.0649 99.5203 57.7488 98.9254C54.017 97.2436 50.2682 95.5905 46.6276 93.7143C45.3172 93.0393 44.3999 93.2395 43.437 94.0403C40.2693 96.6716 37.6941 99.6404 37.6086 104.102C37.5403 107.632 39.3919 110.183 41.9272 112.162C46.5421 115.771 51.8292 117.894 57.6975 118.431C60.6658 118.7 63.6285 118.946 66.7221 119.53C64.8534 120.022 62.9904 120.514 61.1216 121.005C57.6918 121 54.2734 121 50.855 121Z" fill="white"/>
<path d="M100 64.7929C98.9289 64.5069 97.8179 64.3239 96.7981 63.9177C91.2318 61.704 85.7111 59.3644 80.122 57.1965C72.6698 54.3077 65.155 51.5677 57.7086 48.6562C57.1844 48.4502 56.7115 47.3805 56.7001 46.7056C56.6147 41.4372 56.6488 36.1632 56.6488 30.8948C56.6488 30.6317 56.6488 30.3686 56.6773 30.1112C56.7514 29.4648 56.8369 28.8184 56.9223 28.1777C57.4408 28.418 58.0333 28.5724 58.4663 28.9214C62.2664 31.9531 66.0381 35.0134 70.0319 38.2396C70.106 36.9182 70.2256 35.8142 70.2142 34.716C70.1915 32.8912 71.2967 31.3639 72.8578 31.3467C74.6981 31.3296 75.621 32.2791 75.6609 34.1611C75.7008 36.249 75.9572 38.3369 75.8945 40.419C75.8034 43.4507 78.1222 44.7378 79.9567 46.3109C83.0447 48.9536 86.2865 51.4133 89.4371 53.9874C92.0066 56.0867 94.5705 58.2032 97.0716 60.3941C98.137 61.3322 99.0315 62.4648 100.006 63.5116C100 63.9349 100 64.3639 100 64.7929Z" fill="white"/>
<path d="M0 63.5062C2.73473 60.9835 5.41249 58.398 8.22128 55.9612C11.3263 53.2612 14.551 50.7043 17.7188 48.0787C18.8753 47.1177 19.8724 45.8535 21.1714 45.19C24.1511 43.6627 24.1739 41.0257 24.1511 38.3086C24.1397 37.0387 23.9175 35.7631 23.9574 34.4932C24.0201 32.6799 25.5185 31.1869 26.9656 31.3356C28.7944 31.5244 29.7117 32.9201 29.5351 34.9851C29.4553 35.9232 29.649 36.8842 29.7687 38.5202C34.3437 34.8021 38.554 31.3814 42.9296 27.8291C43.0207 28.3554 43.1575 28.7958 43.1575 29.2306C43.1746 35.0938 43.1119 40.957 43.2087 46.8203C43.2315 48.1931 42.6162 48.6851 41.5565 49.0798C35.4945 51.3221 29.4268 53.5415 23.3933 55.8525C19.1887 57.4656 15.0467 59.2618 10.8421 60.8806C7.25843 62.2592 3.61782 63.4947 0 64.7932C0 64.3642 0 63.9352 0 63.5062Z" fill="white"/>
<path d="M19.935 107.678C15.9582 102.163 16.3798 95.2248 20.1572 90.2539C23.2679 86.1582 27.7233 84.2133 32.3438 82.503C38.9129 80.0719 45.5275 77.6923 50.7919 72.7843C55.6802 68.231 59.6854 63.1229 60.7224 56.2243C60.7793 55.8524 61.0642 55.5207 61.2465 55.166C61.4288 55.1832 61.6169 55.2003 61.7992 55.2175C61.6453 56.9793 61.6966 58.7926 61.2978 60.4973C59.6627 67.5217 55.589 72.933 50.2905 77.7037C45.3395 82.1598 39.6478 85.2544 33.8138 88.2404C30.6574 89.8535 27.6093 91.6954 24.5555 93.503C21.0916 95.5566 18.5107 102.209 19.9977 105.83C20.1572 106.213 19.9749 106.74 19.935 107.678Z" fill="white"/>
</g>
<defs>
<clipPath id="clip0_163_164">
<rect width="100" height="121" fill="white"/>
</clipPath>
</defs>
</svg>
